# xmcd
#
# Track frame offsets: 
#        150
#        12917
#        26802
#        38227
#        49760
#        61582
#        75892
#        90627
#        102070
#        115410
#        126522
#        140810
#        153887
#        166797
#        178827
#        192362
#        205345
#        219565
#        233305
#        246495
#        258690
#        272637
#        285312
#        298367
#        310980
#        323712
#
# Disc length: 4486 seconds
#
# Revision: 3
# Processed by: cddbd v1.5.2PL0 Copyright (c) Steve Scherf et al.
# Submitted via: ExactAudioCopyFreeDBPlugin 1.0
#
DISCID=7711841a
DTITLE=Louis Jordan - Let the Good Times Roll:  The Complete US Decca 
DTITLE=Recordings, 1938-1954 [Bear Family box set]
DYEAR=1992
DGENRE=Rhythm and Blues
TTITLE0=Oh Boy, I'm in the Groove
TTITLE1=Never Let Your Left Hand Know What Your Right
TTITLE2=Don't Come Crying on My Shoulder
TTITLE3=Waitin' for the Robert E. Lee
TTITLE4=A Chicken Ain't Nothin' But a Bird
TTITLE5=Pompton Turnpike
TTITLE6=Do You Call That a Buddy (Dirty Cat)
TTITLE7=I Know You, I Know What You Wanna Do
TTITLE8=Pinetop's Boogie Woogie
TTITLE9=The Two Little Squirrels (Nuts to You)
TTITLE10=T-Bone Blues
TTITLE11=Pan Pan
TTITLE12=Saint Vitus Dance
TTITLE13=Saxa-Woogie
TTITLE14=Brotherly Love
TTITLE15=De Laff's on You
TTITLE16=Boogie Woogie Came to Town
TTITLE17=John, Stop Teasing Me
TTITLE18=How 'Bout That
TTITLE19=Teacher (How I Love My Teacher)
TTITLE20=Mama, Mama Blues (Rusty Dusty Blues)
TTITLE21=Knock Me a Kiss
TTITLE22=The Green Grass Grows All Around
TTITLE23=Mister Lovingood
TTITLE24=Small Town Boy
TTITLE25=I'm Gonna Move to the Outskirts of Town
EXTD=
EXTT0=
EXTT1=
EXTT2=
EXTT3=
EXTT4=
EXTT5=
EXTT6=
EXTT7=
EXTT8=
EXTT9=
EXTT10=
EXTT11=
EXTT12=
EXTT13=
EXTT14=
EXTT15=
EXTT16=
EXTT17=
EXTT18=
EXTT19=
EXTT20=
EXTT21=
EXTT22=
EXTT23=
EXTT24=
EXTT25=
PLAYORDER=
